<mxfile host="Electron" modified="2025-02-13T07:27:53.306Z" agent="Mozilla/5.0 (Windows NT 10.0; Win64; x64) AppleWebKit/537.36 (KHTML, like Gecko) draw.io/24.4.8 Chrome/124.0.6367.207 Electron/30.0.6 Safari/537.36" etag="dWsOdMkdlDz0Pk7UYf8N" version="24.4.8" type="device">
  <diagram name="第 1 页" id="F8RkF1UBeTFmrhnX6Xot">
    <mxGraphModel dx="1719" dy="968" grid="1" gridSize="10" guides="1" tooltips="1" connect="1" arrows="1" fold="1" page="1" pageScale="1" pageWidth="3300" pageHeight="4681" math="0" shadow="0">
      <root>
        <mxCell id="0" />
        <mxCell id="1" parent="0" />
        <mxCell id="T8qIxMjku1ZxktuZrSKB-1" value="" style="rounded=0;whiteSpace=wrap;html=1;sketch=1;hachureGap=4;jiggle=2;curveFitting=1;fontFamily=Architects Daughter;fontSource=https%3A%2F%2Ffonts.googleapis.com%2Fcss%3Ffamily%3DArchitects%2BDaughter;" vertex="1" parent="1">
          <mxGeometry x="520" y="105" width="220" height="640" as="geometry" />
        </mxCell>
        <mxCell id="T8qIxMjku1ZxktuZrSKB-2" value="&lt;font style=&quot;font-size: 24px;&quot;&gt;ELF header&lt;/font&gt;" style="rounded=0;whiteSpace=wrap;html=1;sketch=1;hachureGap=4;jiggle=2;curveFitting=1;fontFamily=Architects Daughter;fontSource=https%3A%2F%2Ffonts.googleapis.com%2Fcss%3Ffamily%3DArchitects%2BDaughter;" vertex="1" parent="1">
          <mxGeometry x="520" y="95" width="220" height="110" as="geometry" />
        </mxCell>
        <mxCell id="T8qIxMjku1ZxktuZrSKB-3" value="&lt;font style=&quot;font-size: 24px;&quot;&gt;Program Header Table(可选)&lt;/font&gt;" style="rounded=0;whiteSpace=wrap;html=1;sketch=1;hachureGap=4;jiggle=2;curveFitting=1;fontFamily=Architects Daughter;fontSource=https%3A%2F%2Ffonts.googleapis.com%2Fcss%3Ffamily%3DArchitects%2BDaughter;" vertex="1" parent="1">
          <mxGeometry x="520" y="205" width="220" height="110" as="geometry" />
        </mxCell>
        <mxCell id="T8qIxMjku1ZxktuZrSKB-4" value="&lt;font style=&quot;font-size: 24px;&quot;&gt;Section 1&lt;/font&gt;" style="rounded=0;whiteSpace=wrap;html=1;sketch=1;hachureGap=4;jiggle=2;curveFitting=1;fontFamily=Architects Daughter;fontSource=https%3A%2F%2Ffonts.googleapis.com%2Fcss%3Ffamily%3DArchitects%2BDaughter;" vertex="1" parent="1">
          <mxGeometry x="520" y="315" width="220" height="80" as="geometry" />
        </mxCell>
        <mxCell id="T8qIxMjku1ZxktuZrSKB-9" value="&lt;font style=&quot;font-size: 24px;&quot;&gt;Section 2&lt;/font&gt;" style="rounded=0;whiteSpace=wrap;html=1;sketch=1;hachureGap=4;jiggle=2;curveFitting=1;fontFamily=Architects Daughter;fontSource=https%3A%2F%2Ffonts.googleapis.com%2Fcss%3Ffamily%3DArchitects%2BDaughter;" vertex="1" parent="1">
          <mxGeometry x="520" y="395" width="220" height="80" as="geometry" />
        </mxCell>
        <mxCell id="T8qIxMjku1ZxktuZrSKB-10" value="&lt;h1 style=&quot;&quot;&gt;&lt;font style=&quot;font-size: 36px;&quot;&gt;. . .&lt;/font&gt;&lt;/h1&gt;" style="rounded=0;whiteSpace=wrap;html=1;sketch=1;hachureGap=4;jiggle=2;curveFitting=1;fontFamily=Architects Daughter;fontSource=https%3A%2F%2Ffonts.googleapis.com%2Fcss%3Ffamily%3DArchitects%2BDaughter;align=center;" vertex="1" parent="1">
          <mxGeometry x="520" y="475" width="220" height="80" as="geometry" />
        </mxCell>
        <mxCell id="T8qIxMjku1ZxktuZrSKB-11" value="&lt;font style=&quot;font-size: 24px;&quot;&gt;Section n&lt;/font&gt;" style="rounded=0;whiteSpace=wrap;html=1;sketch=1;hachureGap=4;jiggle=2;curveFitting=1;fontFamily=Architects Daughter;fontSource=https%3A%2F%2Ffonts.googleapis.com%2Fcss%3Ffamily%3DArchitects%2BDaughter;" vertex="1" parent="1">
          <mxGeometry x="520" y="555" width="220" height="80" as="geometry" />
        </mxCell>
        <mxCell id="T8qIxMjku1ZxktuZrSKB-12" value="&lt;span style=&quot;font-size: 24px;&quot;&gt;Section Header Table&lt;/span&gt;" style="rounded=0;whiteSpace=wrap;html=1;sketch=1;hachureGap=4;jiggle=2;curveFitting=1;fontFamily=Architects Daughter;fontSource=https%3A%2F%2Ffonts.googleapis.com%2Fcss%3Ffamily%3DArchitects%2BDaughter;" vertex="1" parent="1">
          <mxGeometry x="520" y="635" width="220" height="110" as="geometry" />
        </mxCell>
        <mxCell id="T8qIxMjku1ZxktuZrSKB-14" value="" style="rounded=0;whiteSpace=wrap;html=1;sketch=1;hachureGap=4;jiggle=2;curveFitting=1;fontFamily=Architects Daughter;fontSource=https%3A%2F%2Ffonts.googleapis.com%2Fcss%3Ffamily%3DArchitects%2BDaughter;" vertex="1" parent="1">
          <mxGeometry x="870" y="105" width="220" height="640" as="geometry" />
        </mxCell>
        <mxCell id="T8qIxMjku1ZxktuZrSKB-15" value="&lt;font style=&quot;font-size: 24px;&quot;&gt;ELF header&lt;/font&gt;" style="rounded=0;whiteSpace=wrap;html=1;sketch=1;hachureGap=4;jiggle=2;curveFitting=1;fontFamily=Architects Daughter;fontSource=https%3A%2F%2Ffonts.googleapis.com%2Fcss%3Ffamily%3DArchitects%2BDaughter;" vertex="1" parent="1">
          <mxGeometry x="870" y="95" width="220" height="110" as="geometry" />
        </mxCell>
        <mxCell id="T8qIxMjku1ZxktuZrSKB-16" value="&lt;font style=&quot;font-size: 24px;&quot;&gt;Program Header Table(可选)&lt;/font&gt;" style="rounded=0;whiteSpace=wrap;html=1;sketch=1;hachureGap=4;jiggle=2;curveFitting=1;fontFamily=Architects Daughter;fontSource=https%3A%2F%2Ffonts.googleapis.com%2Fcss%3Ffamily%3DArchitects%2BDaughter;" vertex="1" parent="1">
          <mxGeometry x="870" y="205" width="220" height="110" as="geometry" />
        </mxCell>
        <mxCell id="T8qIxMjku1ZxktuZrSKB-17" value="&lt;font style=&quot;font-size: 24px;&quot;&gt;Section 1&lt;/font&gt;" style="rounded=0;whiteSpace=wrap;html=1;sketch=1;hachureGap=4;jiggle=2;curveFitting=1;fontFamily=Architects Daughter;fontSource=https%3A%2F%2Ffonts.googleapis.com%2Fcss%3Ffamily%3DArchitects%2BDaughter;" vertex="1" parent="1">
          <mxGeometry x="870" y="315" width="220" height="80" as="geometry" />
        </mxCell>
        <mxCell id="T8qIxMjku1ZxktuZrSKB-18" value="&lt;font style=&quot;font-size: 24px;&quot;&gt;Section 2&lt;/font&gt;" style="rounded=0;whiteSpace=wrap;html=1;sketch=1;hachureGap=4;jiggle=2;curveFitting=1;fontFamily=Architects Daughter;fontSource=https%3A%2F%2Ffonts.googleapis.com%2Fcss%3Ffamily%3DArchitects%2BDaughter;" vertex="1" parent="1">
          <mxGeometry x="870" y="395" width="220" height="80" as="geometry" />
        </mxCell>
        <mxCell id="T8qIxMjku1ZxktuZrSKB-19" value="&lt;h1 style=&quot;&quot;&gt;&lt;font style=&quot;font-size: 36px;&quot;&gt;. . .&lt;/font&gt;&lt;/h1&gt;" style="rounded=0;whiteSpace=wrap;html=1;sketch=1;hachureGap=4;jiggle=2;curveFitting=1;fontFamily=Architects Daughter;fontSource=https%3A%2F%2Ffonts.googleapis.com%2Fcss%3Ffamily%3DArchitects%2BDaughter;align=center;" vertex="1" parent="1">
          <mxGeometry x="870" y="475" width="220" height="80" as="geometry" />
        </mxCell>
        <mxCell id="T8qIxMjku1ZxktuZrSKB-20" value="&lt;font style=&quot;font-size: 24px;&quot;&gt;Section n&lt;/font&gt;" style="rounded=0;whiteSpace=wrap;html=1;sketch=1;hachureGap=4;jiggle=2;curveFitting=1;fontFamily=Architects Daughter;fontSource=https%3A%2F%2Ffonts.googleapis.com%2Fcss%3Ffamily%3DArchitects%2BDaughter;" vertex="1" parent="1">
          <mxGeometry x="870" y="555" width="220" height="80" as="geometry" />
        </mxCell>
        <mxCell id="T8qIxMjku1ZxktuZrSKB-21" value="&lt;span style=&quot;font-size: 24px;&quot;&gt;Section Header Table&lt;/span&gt;" style="rounded=0;whiteSpace=wrap;html=1;sketch=1;hachureGap=4;jiggle=2;curveFitting=1;fontFamily=Architects Daughter;fontSource=https%3A%2F%2Ffonts.googleapis.com%2Fcss%3Ffamily%3DArchitects%2BDaughter;" vertex="1" parent="1">
          <mxGeometry x="870" y="635" width="220" height="110" as="geometry" />
        </mxCell>
        <mxCell id="T8qIxMjku1ZxktuZrSKB-22" value="" style="rounded=0;whiteSpace=wrap;html=1;sketch=1;hachureGap=4;jiggle=2;curveFitting=1;fontFamily=Architects Daughter;fontSource=https%3A%2F%2Ffonts.googleapis.com%2Fcss%3Ffamily%3DArchitects%2BDaughter;" vertex="1" parent="1">
          <mxGeometry x="1220" y="105" width="220" height="640" as="geometry" />
        </mxCell>
        <mxCell id="T8qIxMjku1ZxktuZrSKB-23" value="&lt;font style=&quot;font-size: 24px;&quot;&gt;ELF header&lt;/font&gt;" style="rounded=0;whiteSpace=wrap;html=1;sketch=1;hachureGap=4;jiggle=2;curveFitting=1;fontFamily=Architects Daughter;fontSource=https%3A%2F%2Ffonts.googleapis.com%2Fcss%3Ffamily%3DArchitects%2BDaughter;" vertex="1" parent="1">
          <mxGeometry x="1220" y="95" width="220" height="110" as="geometry" />
        </mxCell>
        <mxCell id="T8qIxMjku1ZxktuZrSKB-24" value="&lt;font style=&quot;font-size: 24px;&quot;&gt;Program Header Table(可选)&lt;/font&gt;" style="rounded=0;whiteSpace=wrap;html=1;sketch=1;hachureGap=4;jiggle=2;curveFitting=1;fontFamily=Architects Daughter;fontSource=https%3A%2F%2Ffonts.googleapis.com%2Fcss%3Ffamily%3DArchitects%2BDaughter;" vertex="1" parent="1">
          <mxGeometry x="1220" y="205" width="220" height="110" as="geometry" />
        </mxCell>
        <mxCell id="T8qIxMjku1ZxktuZrSKB-25" value="&lt;font style=&quot;font-size: 24px;&quot;&gt;Section 1&lt;/font&gt;" style="rounded=0;whiteSpace=wrap;html=1;sketch=1;hachureGap=4;jiggle=2;curveFitting=1;fontFamily=Architects Daughter;fontSource=https%3A%2F%2Ffonts.googleapis.com%2Fcss%3Ffamily%3DArchitects%2BDaughter;" vertex="1" parent="1">
          <mxGeometry x="1220" y="315" width="220" height="80" as="geometry" />
        </mxCell>
        <mxCell id="T8qIxMjku1ZxktuZrSKB-26" value="&lt;font style=&quot;font-size: 24px;&quot;&gt;Section 2&lt;/font&gt;" style="rounded=0;whiteSpace=wrap;html=1;sketch=1;hachureGap=4;jiggle=2;curveFitting=1;fontFamily=Architects Daughter;fontSource=https%3A%2F%2Ffonts.googleapis.com%2Fcss%3Ffamily%3DArchitects%2BDaughter;" vertex="1" parent="1">
          <mxGeometry x="1220" y="395" width="220" height="80" as="geometry" />
        </mxCell>
        <mxCell id="T8qIxMjku1ZxktuZrSKB-27" value="&lt;h1 style=&quot;&quot;&gt;&lt;font style=&quot;font-size: 36px;&quot;&gt;. . .&lt;/font&gt;&lt;/h1&gt;" style="rounded=0;whiteSpace=wrap;html=1;sketch=1;hachureGap=4;jiggle=2;curveFitting=1;fontFamily=Architects Daughter;fontSource=https%3A%2F%2Ffonts.googleapis.com%2Fcss%3Ffamily%3DArchitects%2BDaughter;align=center;" vertex="1" parent="1">
          <mxGeometry x="1220" y="475" width="220" height="80" as="geometry" />
        </mxCell>
        <mxCell id="T8qIxMjku1ZxktuZrSKB-28" value="&lt;font style=&quot;font-size: 24px;&quot;&gt;Section n&lt;/font&gt;" style="rounded=0;whiteSpace=wrap;html=1;sketch=1;hachureGap=4;jiggle=2;curveFitting=1;fontFamily=Architects Daughter;fontSource=https%3A%2F%2Ffonts.googleapis.com%2Fcss%3Ffamily%3DArchitects%2BDaughter;" vertex="1" parent="1">
          <mxGeometry x="1220" y="555" width="220" height="80" as="geometry" />
        </mxCell>
        <mxCell id="T8qIxMjku1ZxktuZrSKB-29" value="&lt;span style=&quot;font-size: 24px;&quot;&gt;Section Header Table&lt;/span&gt;" style="rounded=0;whiteSpace=wrap;html=1;sketch=1;hachureGap=4;jiggle=2;curveFitting=1;fontFamily=Architects Daughter;fontSource=https%3A%2F%2Ffonts.googleapis.com%2Fcss%3Ffamily%3DArchitects%2BDaughter;" vertex="1" parent="1">
          <mxGeometry x="1220" y="635" width="220" height="110" as="geometry" />
        </mxCell>
      </root>
    </mxGraphModel>
  </diagram>
</mxfile>
